<svg width="500" height="500" viewBox="0 0 500 500" fill="none" xmlns="http://www.w3.org/2000/svg">
<rect y="122.619" width="396.802" height="396.802" rx="18" transform="rotate(-18 0 122.619)" stroke="black" stroke-width="5"/>
<path d="M162.523 171.221C156.416 190.014 138.549 196.851 124.624 192.326C113.076 188.574 107.737 179.58 105.337 170.789L101.29 183.242L95.7428 181.44L122.596 98.7935L128.144 100.596L115.857 138.41C123.304 132.443 132.833 128.154 144.267 131.87C158.193 136.394 168.703 152.201 162.596 170.994L162.523 171.221ZM156.449 169.497L156.523 169.271C161.452 154.1 154.086 140.943 141.972 137.007C129.972 133.107 115.15 139.431 110.368 154.149L110.294 154.376C105.475 169.207 113.786 182.922 125.787 186.821C138.354 190.904 151.409 185.008 156.449 169.497Z" fill="black"/>
<path d="M218.685 163.309L218.118 163.125C204.759 158.784 189.824 165.071 183.718 183.865L176.03 207.527L170.482 205.724L189.243 147.985L194.79 149.787L189.456 166.203C197.332 157.372 209.383 153.027 220.671 157.195L218.685 163.309Z" fill="black"/>
<path d="M223.507 193.539C219.854 208.248 227.434 219.973 238.756 223.652C247.7 226.558 255.101 224.582 261.511 221.032L264.257 225.679C256.31 230.107 247.932 232.391 236.837 228.786C221.666 223.857 212.47 207.476 218.318 189.475L218.392 189.248C223.836 172.493 239.951 162.959 255.575 168.036C271.765 173.296 277.8 189.776 272.245 206.872L272.172 207.098C271.914 207.891 271.804 208.23 271.396 209.099L223.507 193.539ZM225.125 188.557L267.128 202.205C270.124 190.286 266.939 177.36 253.693 173.057C242.258 169.341 230.301 176.095 225.125 188.557Z" fill="black"/>
<path d="M308.027 249.289C304.642 249.691 301.591 249.451 297.968 248.274C289.024 245.367 283.36 238.145 286.929 227.163L299.215 189.35L290.837 186.627L292.492 181.533L300.87 184.255L306.866 165.801L312.414 167.603L306.418 186.057L326.683 192.642L325.028 197.737L304.762 191.152L292.66 228.4C289.975 236.664 293.886 241.19 300.566 243.36C303.396 244.28 305.958 244.486 309.719 244.081L308.027 249.289Z" fill="black"/>
<path d="M353.357 264.017C349.972 264.42 346.921 264.179 343.298 263.002C334.354 260.096 328.69 252.874 332.259 241.892L344.545 204.078L336.167 201.356L337.822 196.261L346.2 198.983L352.196 180.53L357.744 182.332L351.748 200.786L372.013 207.371L370.358 212.465L350.092 205.881L337.99 243.128C335.305 251.393 339.216 255.918 345.896 258.089C348.726 259.008 351.288 259.215 355.049 258.81L353.357 264.017Z" fill="black"/>
<path d="M414.772 285.099L409.338 283.333L412.465 273.71C406.7 277.97 397.801 281.087 386.82 277.519C376.064 274.024 366.503 264.158 370.402 252.158L370.476 251.931C374.375 239.93 386.885 236.485 401.829 241.341C409.867 243.952 415.084 246.774 420.153 250.048L420.962 247.557C424.751 235.896 419.568 227.578 407.681 223.716C400.661 221.435 394.262 221.484 388.058 222.472L387.602 216.942C394.899 216.058 401.787 216.044 409.712 218.619C424.544 223.437 431.326 234.152 426.47 249.097L414.772 285.099ZM416.477 261.746L418.611 255.18C414.147 252.352 408.135 248.897 399.871 246.212C387.644 242.239 379.085 245.466 376.473 253.504L376.4 253.731C373.678 262.109 380.021 269.552 388.851 272.421C400.626 276.247 413.056 272.275 416.477 261.746Z" fill="black"/>
<path d="M141.732 294.458C138.079 309.167 145.659 320.893 156.981 324.571C165.925 327.477 173.326 325.501 179.736 321.951L182.482 326.599C174.535 331.026 166.157 333.31 155.062 329.705C139.892 324.776 130.695 308.395 136.544 290.394L136.617 290.168C142.062 273.412 158.177 263.878 173.8 268.955C189.99 274.215 196.025 290.695 190.471 307.791L190.397 308.017C190.139 308.81 190.029 309.149 189.622 310.018L141.732 294.458ZM143.35 289.476L185.353 303.124C188.349 291.205 185.164 278.28 171.918 273.976C160.484 270.26 148.526 277.014 143.35 289.476Z" fill="black"/>
<path d="M226.252 350.208C222.867 350.61 219.816 350.37 216.193 349.193C207.25 346.287 201.586 339.064 205.154 328.082L217.44 290.269L209.062 287.546L210.718 282.452L219.096 285.174L225.092 266.72L230.639 268.522L224.643 286.976L244.908 293.561L243.253 298.656L222.988 292.071L210.885 329.319C208.2 337.583 212.112 342.109 218.791 344.279C221.622 345.199 224.183 345.405 227.945 345L226.252 350.208Z" fill="black"/>
<path d="M293.245 361.962C285.188 366.729 276.624 369.203 265.981 365.745C249.339 360.338 241.034 342.369 246.294 326.179L246.367 325.953C251.628 309.763 269.096 299.918 285.625 305.289C296.494 308.82 301.668 316.009 305.263 323.435L299.976 326.223C296.65 319.51 292.424 313.255 283.82 310.46C270.687 306.193 256.929 313.864 252.441 327.676L252.368 327.902C247.843 341.828 254.767 356.344 268.013 360.648C276.165 363.296 283.866 361.167 290.5 357.315L293.245 361.962Z" fill="black"/>
</svg>
